<svg xmlns="http://www.w3.org/2000/svg" xmlns:xlink="http://www.w3.org/1999/xlink" width="40" zoomAndPan="magnify" viewBox="0 0 30 30.000001" height="40" preserveAspectRatio="xMidYMid meet" version="1.0"><defs><g/></defs><g fill="#e9ca93" fill-opacity="1"><g transform="translate(1.073588, 19.233866)"><g><path d="M 0 0 L 0.859375 -0.859375 L 0.859375 -10.28125 L 0 -11.140625 L 3.859375 -11.140625 L 6.421875 -6 L 8.5625 -10.28125 L 8.140625 -11.140625 L 12.421875 -11.140625 L 12 -10.28125 L 12 -0.859375 L 12.859375 0 L 8.140625 0 L 8.5625 -0.859375 L 8.5625 -7.71875 L 5.140625 -0.859375 L 1.71875 -7.71875 L 1.71875 -0.859375 L 2.140625 0 Z M 0 0 "/></g></g></g><g fill="#e9ca93" fill-opacity="1"><g transform="translate(15.417447, 19.233866)"><g><path d="M 0 0 L 0.859375 -0.859375 L 0.859375 -10.28125 L 0 -11.140625 L 4.71875 -11.140625 L 4.28125 -10.28125 L 4.28125 -6 L 5.140625 -6 L 7.71875 -11.140625 L 9.421875 -11.140625 L 8.5625 -10.28125 L 7.28125 -7.71875 L 10.71875 -0.859375 L 11.5625 0 L 7.71875 0 L 5.140625 -5.140625 L 3.421875 -5.140625 L 4.28125 -4.28125 L 4.28125 -0.859375 L 4.71875 0 Z M 0 0 "/></g></g></g></svg>