<svg xmlns="http://www.w3.org/2000/svg" xmlns:xlink="http://www.w3.org/1999/xlink" width="155" zoomAndPan="magnify" viewBox="0 0 116.25 64.499998" height="86" preserveAspectRatio="xMidYMid meet" version="1.0"><defs><g/><clipPath id="0f05c4548a"><path d="M 2.679688 3.035156 L 115 3.035156 L 115 63.539062 L 2.679688 63.539062 Z M 2.679688 3.035156 " clip-rule="nonzero"/></clipPath><clipPath id="7f0d4a1148"><path d="M 13.84375 3.035156 L 103.894531 3.035156 C 106.855469 3.035156 109.695312 4.210938 111.789062 6.304688 C 113.882812 8.398438 115.058594 11.238281 115.058594 14.199219 L 115.058594 52.375 C 115.058594 55.335938 113.882812 58.175781 111.789062 60.265625 C 109.695312 62.359375 106.855469 63.539062 103.894531 63.539062 L 13.84375 63.539062 C 10.882812 63.539062 8.042969 62.359375 5.949219 60.265625 C 3.855469 58.175781 2.679688 55.335938 2.679688 52.375 L 2.679688 14.199219 C 2.679688 11.238281 3.855469 8.398438 5.949219 6.304688 C 8.042969 4.210938 10.882812 3.035156 13.84375 3.035156 Z M 13.84375 3.035156 " clip-rule="nonzero"/></clipPath><clipPath id="8035ad79e6"><path d="M 2.679688 3.035156 L 115.0625 3.035156 L 115.0625 63.523438 L 2.679688 63.523438 Z M 2.679688 3.035156 " clip-rule="nonzero"/></clipPath><clipPath id="619fa1441c"><path d="M 13.84375 3.035156 L 103.894531 3.035156 C 106.855469 3.035156 109.695312 4.210938 111.789062 6.304688 C 113.878906 8.398438 115.058594 11.238281 115.058594 14.199219 L 115.058594 52.375 C 115.058594 55.335938 113.878906 58.171875 111.789062 60.265625 C 109.695312 62.359375 106.855469 63.535156 103.894531 63.535156 L 13.84375 63.535156 C 10.882812 63.535156 8.042969 62.359375 5.949219 60.265625 C 3.855469 58.171875 2.679688 55.335938 2.679688 52.375 L 2.679688 14.199219 C 2.679688 11.238281 3.855469 8.398438 5.949219 6.304688 C 8.042969 4.210938 10.882812 3.035156 13.84375 3.035156 Z M 13.84375 3.035156 " clip-rule="nonzero"/></clipPath><clipPath id="1c3bc13eb0"><path d="M 0.214844 0 L 112.710938 0 L 112.710938 60.503906 L 0.214844 60.503906 Z M 0.214844 0 " clip-rule="nonzero"/></clipPath><clipPath id="aa9d523b05"><path d="M 11.378906 0 L 101.429688 0 C 104.390625 0 107.226562 1.175781 109.320312 3.269531 C 111.414062 5.363281 112.589844 8.203125 112.589844 11.164062 L 112.589844 49.339844 C 112.589844 52.300781 111.414062 55.140625 109.320312 57.234375 C 107.226562 59.328125 104.390625 60.503906 101.429688 60.503906 L 11.378906 60.503906 C 8.417969 60.503906 5.578125 59.328125 3.484375 57.234375 C 1.390625 55.140625 0.214844 52.300781 0.214844 49.339844 L 0.214844 11.164062 C 0.214844 8.203125 1.390625 5.363281 3.484375 3.269531 C 5.578125 1.175781 8.417969 0 11.378906 0 Z M 11.378906 0 " clip-rule="nonzero"/></clipPath><clipPath id="3b8b74fec8"><path d="M 0.214844 0 L 112.597656 0 L 112.597656 60.488281 L 0.214844 60.488281 Z M 0.214844 0 " clip-rule="nonzero"/></clipPath><clipPath id="c9d94d6f21"><path d="M 11.378906 0 L 101.429688 0 C 104.386719 0 107.226562 1.175781 109.320312 3.269531 C 111.414062 5.363281 112.589844 8.203125 112.589844 11.164062 L 112.589844 49.339844 C 112.589844 52.300781 111.414062 55.140625 109.320312 57.230469 C 107.226562 59.324219 104.386719 60.503906 101.429688 60.503906 L 11.378906 60.503906 C 8.417969 60.503906 5.578125 59.324219 3.484375 57.230469 C 1.390625 55.140625 0.214844 52.300781 0.214844 49.339844 L 0.214844 11.164062 C 0.214844 8.203125 1.390625 5.363281 3.484375 3.269531 C 5.578125 1.175781 8.417969 0 11.378906 0 Z M 11.378906 0 " clip-rule="nonzero"/></clipPath><clipPath id="6e71d96e05"><path d="M 29.164062 32 L 83.664062 32 L 83.664062 35 L 29.164062 35 Z M 29.164062 32 " clip-rule="nonzero"/></clipPath></defs><g clip-path="url(#0f05c4548a)"><g clip-path="url(#7f0d4a1148)"><path fill="#8a0420" d="M 2.679688 3.035156 L 114.941406 3.035156 L 114.941406 63.539062 L 2.679688 63.539062 Z M 2.679688 3.035156 " fill-opacity="1" fill-rule="nonzero"/></g></g><g clip-path="url(#8035ad79e6)"><g clip-path="url(#619fa1441c)"><path stroke-linecap="butt" transform="matrix(0.0651128, 0, 0, 0.0651128, 2.679715, 3.03484)" fill="none" stroke-linejoin="miter" d="M 171.456847 0.00486186 L 1554.45345 0.00486186 C 1599.92742 0.00486186 1643.541636 18.062467 1675.697372 50.218203 C 1707.793116 82.373939 1725.910713 125.988155 1725.910713 171.462125 L 1725.910713 757.764376 C 1725.910713 803.238346 1707.793116 846.79257 1675.697372 878.948306 C 1643.541636 911.104042 1599.92742 929.161648 1554.45345 929.161648 L 171.456847 929.161648 C 125.982877 929.161648 82.368661 911.104042 50.212925 878.948306 C 18.057189 846.79257 -0.000416035 803.238346 -0.000416035 757.764376 L -0.000416035 171.462125 C -0.000416035 125.988155 18.057189 82.373939 50.212925 50.218203 C 82.368661 18.062467 125.982877 0.00486186 171.456847 0.00486186 Z M 171.456847 0.00486186 " stroke="#000000" stroke-width="45.719475" stroke-opacity="1" stroke-miterlimit="4"/></g></g><g clip-path="url(#1c3bc13eb0)"><g clip-path="url(#aa9d523b05)"><path fill="#f4eee3" d="M 0.214844 0 L 112.472656 0 L 112.472656 60.503906 L 0.214844 60.503906 Z M 0.214844 0 " fill-opacity="1" fill-rule="nonzero"/></g></g><g clip-path="url(#3b8b74fec8)"><g clip-path="url(#c9d94d6f21)"><path stroke-linecap="butt" transform="matrix(0.0651128, 0, 0, 0.0651128, 0.214013, -0.000000000000008989)" fill="none" stroke-linejoin="miter" d="M 171.470016 0.000000000000138058 L 1554.466619 0.000000000000138058 C 1599.880596 0.000000000000138058 1643.494813 18.057605 1675.650549 50.213341 C 1707.806285 82.369077 1725.86389 125.983294 1725.86389 171.457263 L 1725.86389 757.759515 C 1725.86389 803.233484 1707.806285 846.847701 1675.650549 878.943444 C 1643.494813 911.09918 1599.880596 929.216778 1554.466619 929.216778 L 171.470016 929.216778 C 125.996046 929.216778 82.38183 911.09918 50.226094 878.943444 C 18.070358 846.847701 0.0127527 803.233484 0.0127527 757.759515 L 0.0127527 171.457263 C 0.0127527 125.983294 18.070358 82.369077 50.226094 50.213341 C 82.38183 18.057605 125.996046 0.000000000000138058 171.470016 0.000000000000138058 Z M 171.470016 0.000000000000138058 " stroke="#8a0420" stroke-width="45.719475" stroke-opacity="1" stroke-miterlimit="4"/></g></g><g clip-path="url(#6e71d96e05)"><path fill="#8a0420" d="M 43.214844 32.332031 C 43.933594 32.171875 45.449219 32.332031 46.550781 32.285156 C 47.074219 32.261719 47.601562 32.1875 48.128906 32.269531 C 49.445312 32.480469 49.738281 33.007812 50.222656 33.054688 C 50.398438 32.160156 50.679688 32.28125 51.015625 32.289062 C 51.402344 32.304688 51.570312 32.785156 51.492188 33.109375 C 51.09375 33.363281 51.378906 32.953125 51.058594 32.613281 C 50.351562 32.574219 50.5625 33.207031 50.683594 33.335938 C 51.175781 33.832031 52.5 34.183594 52.769531 33.246094 C 52.613281 33.261719 52.457031 33.328125 52.304688 33.292969 C 51.207031 32.542969 53.378906 31.488281 53.351562 33.429688 C 53.351562 33.667969 55.121094 31.453125 56.511719 32.484375 C 57.015625 32.859375 57.046875 31.953125 58.28125 32.308594 C 59.234375 32.585938 59.671875 33.265625 60.09375 33.367188 C 60.140625 32.96875 60.109375 32.542969 60.65625 32.347656 C 61.53125 32.171875 61.90625 33.574219 60.652344 33.191406 C 60.613281 33.839844 61.613281 34.175781 62.375 33.679688 C 62.546875 33.566406 62.765625 33.480469 62.84375 33.273438 C 62.953125 33.042969 62.875 32.691406 62.613281 32.609375 C 62.410156 32.585938 62.390625 32.855469 62.269531 32.964844 C 62.171875 32.96875 62.039062 32.976562 61.996094 32.871094 C 61.984375 32.445312 62.472656 32.175781 62.847656 32.332031 C 63.351562 32.546875 63.132812 32.988281 63.28125 33.175781 C 63.3125 33.21875 64.242188 32.726562 64.347656 32.683594 C 66.34375 31.898438 69.785156 32.300781 71.816406 33.035156 C 72.1875 33.203125 72.59375 33.300781 73 33.285156 C 73.253906 33.308594 73.042969 32.792969 72.609375 32.832031 C 72.445312 32.847656 72.285156 32.878906 72.121094 32.894531 C 72.136719 32.824219 72.152344 32.753906 72.175781 32.683594 C 72.421875 32.539062 72.738281 32.59375 73.003906 32.660156 C 73.269531 32.738281 73.359375 33.011719 73.492188 33.222656 C 74.203125 33.371094 74.082031 32.605469 74.730469 32.972656 C 75.4375 33.371094 83.40625 33.109375 83.464844 33.128906 C 83.640625 33.191406 83.523438 33.40625 83.515625 33.535156 C 83.519531 33.476562 76.625 33.457031 75.679688 33.46875 C 74.941406 33.480469 74.929688 33.617188 74.648438 33.789062 C 74.160156 34.085938 73.761719 33.183594 73.375 33.605469 C 72.699219 34.34375 71.386719 34.125 70.503906 33.648438 C 70.152344 33.460938 69.769531 33.257812 69.363281 33.242188 C 69.382812 33.59375 69.539062 33.988281 69.183594 34.234375 C 68.613281 34.632812 68.113281 33.851562 68.578125 33.351562 C 68.660156 33.261719 68.816406 33.222656 68.8125 33.082031 C 68.078125 32.269531 66.734375 32.835938 66.503906 33.199219 C 67.65625 33.101562 67.765625 34.496094 66.660156 34.351562 C 66.335938 34.3125 66.375 34.027344 66.628906 34.054688 C 66.707031 34.066406 66.78125 34.097656 66.859375 34.089844 C 67.035156 34.074219 67.132812 33.839844 67.054688 33.675781 C 66.679688 32.878906 65.207031 34.34375 62.492188 34.515625 C 61.503906 34.578125 61.636719 34.488281 60.996094 34.28125 C 59.863281 33.933594 58.457031 31.957031 57.261719 32.632812 C 57.183594 32.679688 57.179688 32.785156 57.152344 32.867188 C 57.175781 32.800781 57.890625 33.359375 57.945312 33.425781 C 58.160156 33.695312 58.359375 33.925781 58.746094 33.902344 C 58.488281 33.175781 58.992188 33.121094 59.191406 33.214844 C 59.828125 33.519531 59.375 35.058594 57.515625 34.113281 C 56.84375 34.355469 57.105469 34.609375 56.121094 34.097656 C 54.390625 35.121094 53.863281 33.667969 54.414062 33.273438 C 54.617188 33.128906 55.023438 33.1875 55.007812 33.59375 C 55.007812 33.664062 54.933594 33.804688 54.949219 33.859375 C 54.988281 33.984375 55.34375 34.066406 55.75 33.40625 C 55.933594 33.105469 56.105469 32.957031 56.464844 32.914062 C 56.449219 32.8125 56.503906 32.699219 55.917969 32.566406 C 55.1875 32.402344 54.644531 32.8125 54.164062 33.191406 C 52.316406 34.824219 51.390625 34.769531 48.933594 33.992188 C 48.347656 33.808594 47.78125 33.542969 47.175781 33.425781 C 46.574219 33.335938 46.332031 33.847656 46.4375 34.003906 C 46.605469 34.246094 47.042969 33.777344 47.121094 34.058594 C 47.183594 34.277344 46.671875 34.617188 46.25 34.3125 C 45.9375 34.085938 45.949219 33.640625 46.324219 33.398438 C 46.660156 33.183594 47.03125 33.269531 47.003906 33.101562 C 46.996094 33.050781 46.941406 33.027344 46.894531 33.007812 C 46.40625 32.820312 45.707031 32.421875 44.882812 33.203125 C 44.859375 33.332031 44.976562 33.425781 45.023438 33.539062 C 45.34375 34.203125 44.691406 34.570312 44.371094 34.367188 C 44.039062 34.105469 44.039062 33.582031 44.324219 33.28125 C 43.566406 33.105469 43.492188 33.410156 42.320312 33.832031 C 40.292969 34.5625 40.121094 33.664062 39.988281 33.507812 C 39.6875 33.476562 39.371094 33.578125 39.148438 33.78125 C 39.046875 33.863281 38.933594 34 38.789062 33.933594 C 38.667969 33.8125 38.597656 33.621094 38.40625 33.597656 C 37.683594 33.515625 29.980469 33.628906 29.875 33.519531 C 29.164062 32.796875 37.871094 33.351562 38.511719 33.148438 C 38.746094 33.074219 38.773438 32.535156 39.191406 32.9375 C 39.371094 33.109375 39.589844 33.136719 39.820312 33.214844 C 39.847656 33.222656 40.132812 32.859375 40.171875 32.816406 C 40.839844 32.140625 41.140625 32.664062 40.886719 32.839844 C 40.820312 32.882812 40.738281 32.898438 40.660156 32.917969 C 40.492188 32.960938 40.476562 33.019531 40.441406 33.171875 C 41.324219 33.140625 41.738281 32.625 43.214844 32.332031 M 41.523438 33.199219 C 41.179688 33.328125 40.804688 33.34375 40.46875 33.480469 C 40.433594 33.632812 40.644531 33.648438 40.742188 33.699219 C 41.355469 33.847656 41.949219 33.535156 42.492188 33.292969 C 42.902344 33.136719 43.324219 32.992188 43.765625 32.933594 C 44.035156 32.9375 44.300781 33.039062 44.574219 33.019531 C 44.75 32.9375 44.910156 32.832031 45.085938 32.746094 C 45.085938 32.683594 45.085938 32.617188 45.085938 32.554688 C 44.671875 32.542969 44.253906 32.554688 43.835938 32.5625 C 43.042969 32.675781 42.273438 32.921875 41.523438 33.199219 M 46.835938 32.554688 C 46.84375 32.585938 46.859375 32.652344 46.867188 32.683594 C 47.097656 32.722656 47.320312 32.789062 47.535156 32.882812 C 48.425781 33.210938 49.25 33.707031 50.164062 33.972656 C 50.691406 34.167969 51.253906 34.277344 51.816406 34.191406 C 51.988281 34.152344 52.214844 34.167969 52.320312 33.992188 C 52.09375 33.984375 51.878906 34.039062 51.65625 34.050781 C 51.160156 33.996094 50.738281 33.710938 50.308594 33.484375 C 49.988281 33.347656 49.710938 33.136719 49.390625 33.007812 C 48.601562 32.632812 47.707031 32.453125 46.835938 32.554688 M 64.429688 32.953125 C 63.960938 33.117188 63.53125 33.367188 63.09375 33.59375 C 62.789062 33.796875 62.457031 33.953125 62.109375 34.066406 C 62.109375 34.089844 62.105469 34.136719 62.105469 34.160156 C 62.324219 34.242188 62.570312 34.222656 62.796875 34.175781 C 63.261719 34.0625 63.738281 33.957031 64.167969 33.734375 C 64.96875 33.40625 65.746094 33.011719 66.554688 32.703125 C 66.558594 32.664062 66.5625 32.589844 66.5625 32.550781 C 65.832031 32.496094 65.089844 32.640625 64.429688 32.953125 M 68.824219 32.558594 C 68.832031 32.84375 69.148438 33.019531 69.410156 32.996094 C 70.285156 33.03125 71.058594 33.476562 71.875 33.726562 C 72.234375 33.84375 72.644531 33.835938 72.96875 33.628906 C 72.929688 33.570312 72.90625 33.480469 72.824219 33.476562 C 72.53125 33.417969 72.230469 33.40625 71.949219 33.3125 C 71.378906 33.113281 70.816406 32.890625 70.222656 32.769531 C 69.769531 32.628906 69.292969 32.605469 68.824219 32.558594 M 74.222656 33.445312 C 74.332031 33.46875 74.46875 33.554688 74.566406 33.457031 C 74.695312 33.378906 74.558594 33.199219 74.453125 33.1875 C 74.3125 33.175781 74.257812 33.335938 74.222656 33.445312 M 38.914062 33.261719 C 38.898438 33.277344 38.863281 33.300781 38.84375 33.3125 C 38.746094 33.574219 39.210938 33.59375 39.226562 33.363281 C 39.144531 33.28125 39.03125 33.210938 38.914062 33.261719 M 68.738281 33.550781 C 68.71875 33.671875 68.734375 33.792969 68.746094 33.914062 C 68.816406 33.90625 68.898438 33.933594 68.964844 33.890625 C 69.113281 33.769531 69.046875 33.554688 69.058594 33.386719 C 68.925781 33.382812 68.804688 33.4375 68.738281 33.550781 M 44.488281 33.484375 C 44.472656 33.652344 44.496094 33.816406 44.539062 33.976562 C 44.601562 33.972656 44.667969 33.96875 44.734375 33.964844 C 44.753906 33.78125 44.753906 33.449219 44.488281 33.484375 Z M 44.488281 33.484375 " fill-opacity="1" fill-rule="nonzero"/></g><path fill="#8a0420" d="M 53.554688 33.160156 C 53.566406 33.171875 53.566406 33.171875 53.554688 33.160156 Z M 53.554688 33.160156 " fill-opacity="1" fill-rule="nonzero"/><g fill="#8a0420" fill-opacity="1"><g transform="translate(12.82166, 25.813402)"><g><path d="M 0 0 L 1.234375 -1.234375 L 1.234375 -14.84375 L 0 -16.078125 L 5.5625 -16.078125 L 9.28125 -8.65625 L 12.359375 -14.84375 L 11.75 -16.078125 L 17.9375 -16.078125 L 17.3125 -14.84375 L 17.3125 -1.234375 L 18.546875 0 L 11.75 0 L 12.359375 -1.234375 L 12.359375 -11.140625 L 7.421875 -1.234375 L 2.46875 -11.140625 L 2.46875 -1.234375 L 3.09375 0 Z M 0 0 "/></g></g></g><g fill="#8a0420" fill-opacity="1"><g transform="translate(33.528169, 25.813402)"><g><path d="M 0 0 L 1.234375 -1.234375 L 1.234375 -14.84375 L 0 -16.078125 L 7.421875 -16.078125 L 6.1875 -14.84375 L 6.1875 -1.234375 L 7.421875 0 Z M 0 0 "/></g></g></g><g fill="#8a0420" fill-opacity="1"><g transform="translate(43.109752, 25.813402)"><g><path d="M 3.09375 0 L 3.71875 -1.234375 L 3.71875 -14.21875 L 4.9375 -14.84375 L 1.234375 -14.84375 L 0 -13.609375 L 0 -16.078125 L 12.359375 -16.078125 L 12.359375 -13.609375 L 11.140625 -14.84375 L 7.421875 -14.84375 L 8.65625 -14.21875 L 8.65625 -1.234375 L 9.28125 0 Z M 3.09375 0 "/></g></g></g><g fill="#8a0420" fill-opacity="1"><g transform="translate(57.634853, 25.813402)"><g><path d="M 3.09375 0 L 3.71875 -1.234375 L 3.71875 -14.21875 L 4.9375 -14.84375 L 1.234375 -14.84375 L 0 -13.609375 L 0 -16.078125 L 12.359375 -16.078125 L 12.359375 -13.609375 L 11.140625 -14.84375 L 7.421875 -14.84375 L 8.65625 -14.21875 L 8.65625 -1.234375 L 9.28125 0 Z M 3.09375 0 "/></g></g></g><g fill="#8a0420" fill-opacity="1"><g transform="translate(72.159954, 25.813402)"><g><path d="M 9.890625 -8.65625 L 9.890625 -13.609375 L 8.65625 -14.84375 L 7.421875 -14.84375 L 6.1875 -13.609375 L 6.1875 -8.65625 Z M 0 0 L 1.234375 -1.234375 L 1.234375 -12.359375 L 4.9375 -16.078125 L 11.140625 -16.078125 L 14.84375 -12.359375 L 14.84375 -1.234375 L 16.078125 0 L 9.28125 0 L 9.890625 -1.234375 L 9.890625 -6.1875 L 11.140625 -7.421875 L 4.9375 -7.421875 L 6.1875 -6.1875 L 6.1875 -1.234375 L 6.796875 0 Z M 0 0 "/></g></g></g><g fill="#8a0420" fill-opacity="1"><g transform="translate(90.39872, 25.813402)"><g><path d="M 0 0 L 1.234375 -1.234375 L 1.234375 -14.84375 L 0 -16.078125 L 7.421875 -16.078125 L 6.1875 -14.84375 L 6.1875 -1.234375 L 7.421875 0 Z M 0 0 "/></g></g></g><g fill="#8a0420" fill-opacity="1"><g transform="translate(32.815858, 49.873561)"><g><path d="M 1.9375 -1.9375 L 1.9375 -3.046875 L 3.71875 -5.3125 L 5.859375 -1.296875 C 6.09375 -0.875 6.25 -0.46875 6.34375 0 L 8.65625 0 C 8.296875 -0.46875 7.78125 -1.296875 7.421875 -1.9375 L 4.859375 -6.75 L 6.578125 -8.984375 C 7.09375 -9.625 7.71875 -10.34375 8.296875 -10.890625 L 6.390625 -10.890625 C 6.421875 -10.171875 6.28125 -9.5 5.703125 -8.78125 L 1.9375 -3.984375 L 1.9375 -8.96875 C 1.9375 -9.703125 1.984375 -10.34375 2.1875 -10.890625 L 0 -10.890625 C 0.203125 -10.34375 0.265625 -9.703125 0.265625 -8.96875 C 0.265625 -7.78125 0.265625 -3.125 0.265625 -1.9375 C 0.265625 -1.1875 0.203125 -0.546875 0 0 L 2.1875 0 C 1.984375 -0.546875 1.9375 -1.1875 1.9375 -1.9375 Z M 1.9375 -1.9375 "/></g></g></g><g fill="#8a0420" fill-opacity="1"><g transform="translate(42.679065, 49.873561)"><g><path d="M 5.9375 -10.890625 L 4.140625 -10.890625 L 0.90625 -1.921875 C 0.671875 -1.28125 0.3125 -0.53125 0 0 L 1.90625 0 C 1.4375 -0.78125 1.3125 -1.375 1.5 -1.921875 C 1.765625 -2.625 2.015625 -3.21875 2.703125 -3.609375 C 3.703125 -4.203125 5.265625 -4.1875 6.28125 -3.5625 C 6.875 -3.1875 7.15625 -2.625 7.40625 -1.890625 C 7.640625 -1.265625 7.890625 -0.515625 7.890625 0 L 10.09375 0 C 9.78125 -0.53125 9.421875 -1.28125 9.1875 -1.921875 Z M 6.65625 -4 C 5.375 -4.8125 3.515625 -4.8125 2.25 -4 L 4.453125 -10.0625 Z M 6.65625 -4 "/></g></g></g><g fill="#8a0420" fill-opacity="1"><g transform="translate(53.980355, 49.873561)"><g><path d="M 0 0 C 1.4375 0 2.875 0 4.3125 0 C 7.328125 0 10.03125 -1.875 10.03125 -5.453125 C 10.03125 -9.03125 7.328125 -10.890625 4.3125 -10.890625 C 2.875 -10.890625 1.4375 -10.890625 0 -10.890625 C 0.203125 -10.34375 0.265625 -9.703125 0.265625 -8.96875 C 0.265625 -7.78125 0.265625 -3.125 0.265625 -1.9375 C 0.265625 -1.1875 0.203125 -0.546875 0 0 Z M 1.9375 -10.328125 L 4.3125 -10.328125 C 6.375 -10.328125 8.3125 -8.453125 8.3125 -5.453125 C 8.3125 -2.4375 6.375 -0.5625 4.3125 -0.5625 L 1.9375 -0.5625 Z M 1.9375 -10.328125 "/></g></g></g><g fill="#8a0420" fill-opacity="1"><g transform="translate(65.238065, 49.873561)"><g><path d="M 5.9375 -10.890625 L 4.140625 -10.890625 L 0.90625 -1.921875 C 0.671875 -1.28125 0.3125 -0.53125 0 0 L 1.90625 0 C 1.4375 -0.78125 1.3125 -1.375 1.5 -1.921875 C 1.765625 -2.625 2.015625 -3.21875 2.703125 -3.609375 C 3.703125 -4.203125 5.265625 -4.1875 6.28125 -3.5625 C 6.875 -3.1875 7.15625 -2.625 7.40625 -1.890625 C 7.640625 -1.265625 7.890625 -0.515625 7.890625 0 L 10.09375 0 C 9.78125 -0.53125 9.421875 -1.28125 9.1875 -1.921875 Z M 6.65625 -4 C 5.375 -4.8125 3.515625 -4.8125 2.25 -4 L 4.453125 -10.0625 Z M 6.65625 -4 "/></g></g></g><g fill="#8a0420" fill-opacity="1"><g transform="translate(76.539355, 49.873561)"><g><path d="M 0.265625 -8.96875 L 0.265625 -1.9375 C 0.265625 -1.1875 0.203125 -0.546875 0 0 L 2.1875 0 C 1.984375 -0.546875 1.9375 -1.1875 1.9375 -1.9375 C 1.9375 -3.125 1.9375 -7.78125 1.9375 -8.96875 C 1.9375 -9.703125 1.984375 -10.34375 2.1875 -10.890625 L 0 -10.890625 C 0.203125 -10.34375 0.265625 -9.703125 0.265625 -8.96875 Z M 0.265625 -8.96875 "/></g></g></g></svg>